<svg width="50" height="50" viewBox="0 0 50 50" fill="none" xmlns="http://www.w3.org/2000/svg">
<path d="M25 0C11.1929 0 0 11.1928 0 25C0 38.8072 11.1929 50 25 50C38.8071 50 50 38.8071 50 25C50 11.1929 38.8071 0 25 0V0ZM40.3206 40.3206C36.5216 44.1081 31.4486 46.3456 26.09 46.597C20.7314 46.8484 15.4711 45.0957 11.3342 41.6806C7.19724 38.2654 4.47997 33.4323 3.71183 28.1231C2.94369 22.8139 4.17971 17.4089 7.17905 12.9613C10.1784 8.5136 14.7262 5.34193 19.9363 4.06425C25.1464 2.78656 30.6456 3.49439 35.3623 6.04982C40.079 8.60525 43.6754 12.8252 45.4507 17.8874C47.2259 22.9497 47.0529 28.4915 44.9653 33.4331C43.8773 36.0079 42.2999 38.3469 40.3206 40.3206V40.3206Z" fill="#FC7E2F"/>
<path d="M26.7307 15.5149L24.3736 13.158L12.5318 24.9997L24.3736 36.8415L26.7307 34.4845L18.9125 26.6664H38.4375V23.3331H18.9125L26.7307 15.5149V15.5149Z" fill="#FC7E2F"/>
</svg>
