<svg width="30" height="30" viewBox="0 0 30 30" fill="none" xmlns="http://www.w3.org/2000/svg">
<path d="M29.6714 17.8123L26.6714 14.0624C26.5308 13.8868 26.3525 13.745 26.1497 13.6477C25.9469 13.5503 25.7248 13.4998 25.4999 13.4999H16.5V10.4999H25.4999C27.1544 10.4999 28.4999 9.15441 28.4999 7.49993V2.99997C28.4999 1.34549 27.1544 1.05593e-07 25.4999 1.05593e-07H4.5001C4.27515 -8.4294e-05 4.05306 0.0504273 3.85028 0.147795C3.64749 0.245163 3.4692 0.386894 3.32861 0.562495L0.328639 4.31246C0.115893 4.57861 0 4.90922 0 5.24995C0 5.59068 0.115893 5.92129 0.328639 6.18744L3.32861 9.93741C3.4692 10.113 3.64749 10.2547 3.85028 10.3521C4.05306 10.4495 4.27515 10.5 4.5001 10.4999H13.5V13.4999H4.5001C2.84561 13.4999 1.50013 14.8454 1.50013 16.4998V20.9998C1.50013 22.6543 2.84561 23.9998 4.5001 23.9998H13.5V29.9997H16.5V23.9998H25.4999C25.7248 23.9999 25.9469 23.9493 26.1497 23.852C26.3525 23.7546 26.5308 23.6129 26.6714 23.4373L29.6714 19.6873C29.8841 19.4212 30 19.0906 30 18.7498C30 18.4091 29.8841 18.0785 29.6714 17.8123ZM3.42161 5.24995L5.22009 2.99997H25.4999L25.5029 7.49993H5.22009L3.42161 5.24995ZM24.7799 20.9998H4.5001V16.4998H24.7799L26.5799 18.7498L24.7799 20.9998Z" fill="#FC7E2F"/>
</svg>
