<svg width="45" height="37" viewBox="0 0 45 37" fill="none" xmlns="http://www.w3.org/2000/svg">
<path d="M35.3822 36.2C31.7422 36.2 28.9889 34.7067 27.1222 31.72C25.5355 29.2 24.7422 26.12 24.7422 22.48C24.7422 17.8133 25.9089 13.6133 28.2422 9.87999C30.6689 6.14666 34.3089 3.16 39.1622 0.919991L40.4222 3.43999C37.5289 4.65333 35.0089 6.56666 32.8622 9.17999C30.8089 11.7933 29.7822 14.4533 29.7822 17.16C29.7822 18.28 29.9222 19.26 30.2022 20.1C31.6955 18.8867 33.4222 18.28 35.3822 18.28C37.9022 18.28 40.0022 19.12 41.6822 20.8C43.4555 22.3867 44.3422 24.5333 44.3422 27.24C44.3422 29.76 43.4555 31.9067 41.6822 33.68C40.0022 35.36 37.9022 36.2 35.3822 36.2ZM11.5822 36.2C7.94219 36.2 5.18886 34.7067 3.32219 31.72C1.73552 29.2 0.942188 26.12 0.942188 22.48C0.942188 17.8133 2.10885 13.6133 4.44219 9.87999C6.86886 6.14666 10.5089 3.16 15.3622 0.919991L16.6222 3.43999C13.7289 4.65333 11.2089 6.56666 9.06219 9.17999C7.00885 11.7933 5.98219 14.4533 5.98219 17.16C5.98219 18.28 6.12219 19.26 6.40219 20.1C7.89552 18.8867 9.62219 18.28 11.5822 18.28C14.1022 18.28 16.2022 19.12 17.8822 20.8C19.6555 22.3867 20.5422 24.5333 20.5422 27.24C20.5422 29.76 19.6555 31.9067 17.8822 33.68C16.2022 35.36 14.1022 36.2 11.5822 36.2Z" fill="#333333"/>
</svg>
